<svg width="24" height="24" viewBox="0 0 24 24" fill="none" xmlns="http://www.w3.org/2000/svg">
<rect x="1.5" y="1.5" width="21" height="21" rx="8.5" fill="#00C2A8" stroke="#1C232D" stroke-width="3"/>
<path fill-rule="evenodd" clip-rule="evenodd" d="M10.1201 15.3099C10.1563 15.3494 10.1968 15.3862 10.2415 15.4195C10.5985 15.6858 11.0996 15.6362 11.3975 15.3051L16.3441 9.80834C16.6835 9.43124 16.6254 8.84407 16.2187 8.54079C15.8617 8.27453 15.3606 8.3241 15.0627 8.65516L10.7513 13.4461L8.964 11.8107C8.61571 11.492 8.08181 11.4918 7.73321 11.8101C7.33741 12.1715 7.3371 12.7947 7.73254 13.1566L9.95358 15.1888C10.0054 15.2362 10.0613 15.2766 10.1201 15.3099Z" fill="white"/>
<path d="M10.2415 15.4195L10.1817 15.4997H10.1817L10.2415 15.4195ZM10.1201 15.3099L10.1939 15.2424L10.1832 15.2307L10.1694 15.2229L10.1201 15.3099ZM11.3975 15.3051L11.3232 15.2383H11.3232L11.3975 15.3051ZM16.3441 9.80834L16.2698 9.74144L16.3441 9.80834ZM16.2187 8.54079L16.2785 8.46063V8.46063L16.2187 8.54079ZM15.0627 8.65516L14.9884 8.58827V8.58827L15.0627 8.65516ZM10.7513 13.4461L10.6838 13.5199L10.7582 13.5879L10.8256 13.513L10.7513 13.4461ZM8.964 11.8107L9.03151 11.7369L8.964 11.8107ZM7.73321 11.8101L7.66577 11.7363L7.73321 11.8101ZM7.73254 13.1566L7.66503 13.2303H7.66503L7.73254 13.1566ZM9.95358 15.1888L9.88607 15.2626L9.95358 15.1888ZM10.3013 15.3394C10.2616 15.3098 10.2258 15.2773 10.1939 15.2424L10.0464 15.3775C10.0868 15.4216 10.132 15.4626 10.1817 15.4997L10.3013 15.3394ZM11.3232 15.2383C11.0598 15.5309 10.6169 15.5747 10.3013 15.3394L10.1817 15.4997C10.5801 15.7968 11.1394 15.7415 11.4718 15.372L11.3232 15.2383ZM16.2698 9.74144L11.3232 15.2383L11.4718 15.372L16.4185 9.87523L16.2698 9.74144ZM16.1589 8.62095C16.5184 8.88905 16.5698 9.4081 16.2698 9.74144L16.4185 9.87523C16.7972 9.45439 16.7324 8.7991 16.2785 8.46063L16.1589 8.62095ZM15.137 8.72205C15.4004 8.4294 15.8433 8.38558 16.1589 8.62095L16.2785 8.46063C15.8801 8.16347 15.3209 8.2188 14.9884 8.58827L15.137 8.72205ZM10.8256 13.513L15.137 8.72205L14.9884 8.58827L10.677 13.3792L10.8256 13.513ZM8.89649 11.8845L10.6838 13.5199L10.8188 13.3723L9.03151 11.7369L8.89649 11.8845ZM7.80064 11.8839C8.11102 11.6005 8.58639 11.6007 8.89649 11.8845L9.03151 11.7369C8.64503 11.3833 8.0526 11.383 7.66577 11.7363L7.80064 11.8839ZM7.80005 13.0828C7.44796 12.7606 7.44823 12.2058 7.80064 11.8839L7.66577 11.7363C7.22658 12.1373 7.22624 12.8288 7.66503 13.2303L7.80005 13.0828ZM10.0211 15.1151L7.80005 13.0828L7.66503 13.2303L9.88607 15.2626L10.0211 15.1151ZM10.1694 15.2229C10.1171 15.1933 10.0673 15.1573 10.0211 15.1151L9.88607 15.2626C9.94349 15.3151 10.0055 15.3599 10.0708 15.3969L10.1694 15.2229Z" fill="white"/>
</svg>
