<svg width="24" height="24" viewBox="0 0 24 24" fill="none" xmlns="http://www.w3.org/2000/svg">
<rect x="1.5" y="1.5" width="21" height="21" rx="8.5" fill="#FAB400" stroke="#1C232D" stroke-width="3"/>
<path fill-rule="evenodd" clip-rule="evenodd" d="M7.74199 11.1976C7.82683 10.9933 8.02612 10.8597 8.24756 10.8588H10.4727L12.4169 8.92212L12.0701 8.57566C11.9241 8.42989 11.8507 8.22678 11.8698 8.02152C11.8889 7.81625 11.9986 7.63014 12.1689 7.51375C12.4575 7.32834 12.8372 7.37339 13.0742 7.62115L16.4909 11.0425C16.7245 11.2852 16.7671 11.6538 16.5949 11.9433C16.4784 12.1134 16.2921 12.2229 16.0866 12.242C15.8811 12.2611 15.6777 12.1878 15.5318 12.042L15.1849 11.6955L13.2477 13.6305V15.8531C13.2468 16.0743 13.1131 16.2733 12.9085 16.3581C12.704 16.4428 12.4685 16.3967 12.3111 16.2411L10.5813 14.5133L8.50652 16.2859C8.41567 16.3622 8.30016 16.4027 8.18165 16.3999C7.99362 16.3977 7.82362 16.2872 7.74484 16.1161C7.66606 15.945 7.69256 15.7437 7.81292 15.5989H7.82104L9.58926 13.5225L7.85907 11.7943C7.70329 11.6371 7.65714 11.4019 7.74199 11.1976Z" fill="white"/>
</svg>
