<svg width="24" height="24" viewBox="0 0 24 24" fill="none" xmlns="http://www.w3.org/2000/svg">
<rect x="1.5" y="1.5" width="21" height="21" rx="8.5" fill="#E75F5B" stroke="#1C232D" stroke-width="3"/>
<path fill-rule="evenodd" clip-rule="evenodd" d="M15.7048 9.49668C16.0367 9.16473 16.0367 8.62654 15.7048 8.29459C15.3728 7.96265 14.8346 7.96265 14.5027 8.29459L11.9994 10.7979L9.49604 8.29459C9.1641 7.96265 8.62591 7.96265 8.29396 8.29459C7.96202 8.62654 7.96202 9.16473 8.29396 9.49668L10.7973 12L8.29396 14.5033C7.96202 14.8353 7.96202 15.3735 8.29396 15.7054C8.62591 16.0374 9.1641 16.0374 9.49604 15.7054L11.9994 13.2021L14.5027 15.7054C14.8346 16.0374 15.3728 16.0374 15.7048 15.7054C16.0367 15.3735 16.0367 14.8353 15.7048 14.5033L13.2014 12L15.7048 9.49668Z" fill="white"/>
</svg>
